<?xml version="1.0" encoding="utf-8"?>
<!-- Generator: Adobe Illustrator 22.1.0, SVG Export Plug-In . SVG Version: 6.00 Build 0)  -->
<svg xmlns="http://www.w3.org/2000/svg" xmlns:xlink="http://www.w3.org/1999/xlink" version="1.1" id="Layer_1" x="0px" y="0px" viewBox="0 0 256 256" style="enable-background:new 0 0 256 256;" xml:space="preserve" width="512" height="512">
<style type="text/css">
	.st0{fill:#F9CFCF;}
	.st1{fill:#3762CC;}
	.st2{fill:#6BDDDD;}
	.st3{fill:#E0EBFC;}
	.st4{fill:#EAA97D;}
	.st5{fill:#A4C9FF;}
	.st6{fill:#F9A7A7;}
	.st7{fill:#4671C6;}
	.st8{fill:#FFEA92;}
	.st9{fill:#B9BEFC;}
	.st10{fill:#3962CA;}
	.st11{fill:#DDA073;}
</style>
<g>
	<g>
		<g>
			<path class="st3" d="M151.915,121c-0.98-7.336-7.247-13-14.851-13c-2.483,0-4.819,0.613-6.881,1.681     C128.671,102.996,122.706,98,115.564,98c-2.88,0-5.561,0.826-7.846,2.233C104.993,96.463,100.571,94,95.564,94     s-9.429,2.463-12.154,6.233C81.125,98.826,78.444,98,75.564,98c-6.708,0-12.385,4.404-14.303,10.478     c-1.185-0.301-2.419-0.478-3.697-0.478c-7.604,0-13.871,5.664-14.851,13H151.915z"/>
		</g>
	</g>
	<g>
		<g>
			<path class="st1" d="M151.915,123H42.713c-0.576,0-1.125-0.249-1.505-0.683c-0.38-0.434-0.554-1.011-0.478-1.582     c1.121-8.4,8.358-14.735,16.833-14.735c0.797,0,1.607,0.062,2.424,0.183C62.668,100.025,68.721,96,75.563,96     c2.542,0,5.048,0.577,7.339,1.68C86.111,94.095,90.726,92,95.563,92s9.453,2.095,12.662,5.68c2.291-1.103,4.796-1.68,7.338-1.68     c7.188,0,13.421,4.402,15.887,10.957c1.799-0.636,3.679-0.957,5.614-0.957c8.475,0,15.712,6.335,16.833,14.735     c0.076,0.571-0.098,1.148-0.478,1.582C153.04,122.751,152.491,123,151.915,123z M45.208,119H149.42     c-1.703-5.263-6.664-9-12.355-9c-2.089,0-4.095,0.49-5.963,1.457c-0.551,0.285-1.202,0.298-1.763,0.037     c-0.562-0.261-0.971-0.768-1.107-1.373c-1.348-5.959-6.557-10.122-12.668-10.122c-2.39,0-4.74,0.669-6.797,1.937     c-0.891,0.548-2.055,0.318-2.67-0.532C103.651,98.021,99.714,96,95.563,96c-4.149,0-8.087,2.021-10.532,5.405     c-0.615,0.85-1.779,1.08-2.67,0.532c-2.057-1.267-4.407-1.937-6.798-1.937c-5.698,0-10.68,3.649-12.396,9.081     c-0.319,1.011-1.371,1.598-2.399,1.336C59.68,110.14,58.602,110,57.563,110C51.872,110,46.911,113.737,45.208,119z"/>
		</g>
	</g>
	<g>
		<g>
			<path class="st5" d="M53.64,248h81.4c4.135,0,7.589-3.336,7.967-7.694L153.34,121h-118l10.334,119.306     C46.051,244.664,49.505,248,53.64,248z"/>
		</g>
	</g>
	<g>
		<g>
			<path class="st1" d="M135.04,250H53.641c-5.208,0-9.49-4.093-9.959-9.521L33.348,121.172c-0.049-0.558,0.14-1.111,0.519-1.524     c0.379-0.413,0.913-0.648,1.474-0.648h118c0.561,0,1.095,0.235,1.474,0.648c0.379,0.413,0.567,0.966,0.519,1.524l-10.333,119.306     C144.528,245.907,140.247,250,135.04,250z M37.521,123l10.146,117.134c0.29,3.344,2.858,5.866,5.975,5.866h81.399     c3.116,0,5.685-2.522,5.975-5.867L151.159,123H37.521z"/>
		</g>
	</g>
	<g>
		<g>
			<path class="st7" d="M30.632,141.365l-1.467-16c-0.215-2.344,1.63-4.365,3.983-4.365h122.383c2.353,0,4.198,2.022,3.983,4.365     l-1.467,16c-0.189,2.059-1.916,3.635-3.983,3.635H34.615C32.547,145,30.821,143.424,30.632,141.365z"/>
		</g>
	</g>
	<g>
		<g>
			<path class="st1" d="M154.065,147H34.615c-3.122,0-5.69-2.344-5.975-5.453l-1.467-16c-0.154-1.676,0.408-3.35,1.542-4.592     c1.135-1.243,2.75-1.956,4.433-1.956h122.384c1.682,0,3.297,0.712,4.431,1.955c1.135,1.243,1.697,2.917,1.545,4.592     l-1.468,16.001C159.755,144.656,157.186,147,154.065,147z M33.148,123c-0.569,0-1.094,0.231-1.478,0.652     s-0.566,0.964-0.515,1.531l1.467,16c0,0,0,0,0,0c0.096,1.036,0.951,1.817,1.992,1.817h119.45c1.04,0,1.896-0.782,1.992-1.818     l1.467-16c0.051-0.566-0.132-1.11-0.516-1.531c-0.384-0.42-0.908-0.651-1.477-0.651H33.148z"/>
		</g>
	</g>
	<g>
		<g>
			<path class="st4" d="M170.34,152h18V17c0-4.971-4.029-9-9-9h0c-4.971,0-9,4.029-9,9V152z"/>
		</g>
	</g>
	<g>
		<g>
			<path class="st1" d="M188.34,154h-18c-1.104,0-2-0.896-2-2V17c0-6.065,4.935-11,11-11s11,4.935,11,11v135     C190.34,153.104,189.444,154,188.34,154z M172.34,150h14V17c0-3.86-3.141-7-7-7s-7,3.14-7,7V150z"/>
		</g>
	</g>
	<g>
		<g>
			<path class="st4" d="M160.34,164.5h38v-14.909c0-3.916-3.175-7.091-7.091-7.091h-23.818c-3.916,0-7.091,3.175-7.091,7.091V164.5z     "/>
		</g>
	</g>
	<g>
		<g>
			<path class="st1" d="M198.34,166.5h-38c-1.104,0-2-0.896-2-2v-14.909c0-5.013,4.078-9.091,9.092-9.091h23.817     c5.013,0,9.091,4.078,9.091,9.091V164.5C200.34,165.604,199.444,166.5,198.34,166.5z M162.34,162.5h34v-12.909     c0-2.807-2.284-5.091-5.091-5.091h-23.817c-2.808,0-5.092,2.284-5.092,5.091V162.5z"/>
		</g>
	</g>
	<g>
		<g>
			<path class="st0" d="M35.34,190h36c4.418,0,8-3.582,8-8v-59c0-4.418-3.582-8-8-8h-36c-4.418,0-8,3.582-8,8v59     C27.34,186.418,30.922,190,35.34,190z"/>
		</g>
	</g>
	<g>
		<g>
			<circle class="st6" cx="95.34" cy="133" r="8"/>
		</g>
	</g>
	<g>
		<g>
			<g>
				<path class="st0" d="M152.34,181c2.206,0,4-1.794,4-4s-1.794-4-4-4h-17.43c-13.856,0-26.135-9.321-29.858-22.667l-4.857-17.408      c-0.481-1.723-2.065-2.926-3.853-2.926c-0.361,0-0.724,0.05-1.075,0.148c-1.03,0.287-1.886,0.958-2.41,1.889      c-0.525,0.931-0.656,2.01-0.369,3.039l4.857,17.408C102.03,169.273,117.477,181,134.91,181H152.34z"/>
			</g>
		</g>
	</g>
	<g>
		<g>
			<g>
				<path class="st1" d="M152.34,183h-17.43c-18.326,0-34.566-12.328-39.492-29.979l-4.857-17.408      c-0.431-1.544-0.234-3.164,0.555-4.56c0.785-1.395,2.069-2.4,3.613-2.832c0.528-0.147,1.071-0.222,1.613-0.222      c2.681,0,5.057,1.804,5.778,4.388l4.858,17.408C110.462,162.28,121.947,171,134.91,171h17.43c3.309,0,6,2.691,6,6      S155.648,183,152.34,183z M96.342,131.999c-0.179,0-0.359,0.025-0.537,0.075c-0.523,0.146-0.94,0.473-1.206,0.944      c-0.263,0.466-0.328,1.005-0.185,1.52l4.857,17.408C103.717,167.875,118.372,179,134.91,179h17.43c1.103,0,2-0.897,2-2      s-0.897-2-2-2h-17.43c-14.751,0-27.821-9.923-31.785-24.13l-4.857-17.408C98.027,132.601,97.235,131.999,96.342,131.999z"/>
			</g>
		</g>
	</g>
	<g>
		<g>
			<path class="st4" d="M136.34,183h86v-10c0-8.837-7.163-16-16-16h-54c-8.837,0-16,7.163-16,16V183z"/>
		</g>
	</g>
	<g>
		<g>
			<path class="st3" d="M136.021,248h86.638c3.568,0,6.348-3.095,5.965-6.642L222.34,183h-86l-6.285,58.358     C129.673,244.905,132.453,248,136.021,248z"/>
		</g>
	</g>
	<g>
		<g>
			<path class="st5" d="M208.34,200c1.657,0,3,1.343,3,3v45h-6v-45C205.34,201.343,206.683,200,208.34,200z"/>
		</g>
	</g>
	<g>
		<g>
			<path class="st5" d="M196.34,210c1.657,0,3,1.343,3,3v35h-6v-35C193.34,211.343,194.683,210,196.34,210z"/>
		</g>
	</g>
	<g>
		<g>
			<path class="st5" d="M184.34,220c1.657,0,3,1.343,3,3v25h-6v-25C181.34,221.343,182.683,220,184.34,220z"/>
		</g>
	</g>
	<g>
		<g>
			<path class="st5" d="M158.34,210c1.657,0,3,1.343,3,3v35h-6v-35C155.34,211.343,156.683,210,158.34,210z"/>
		</g>
	</g>
	<g>
		<g>
			<path class="st5" d="M146.34,200c1.657,0,3,1.343,3,3v45h-6v-45C143.34,201.343,144.683,200,146.34,200z"/>
		</g>
	</g>
	<g>
		<g>
			<path class="st1" d="M222.659,250h-86.639c-2.267,0-4.436-0.967-5.951-2.654c-1.515-1.687-2.245-3.948-2.002-6.202l6.284-58.358     c0.109-1.016,0.967-1.786,1.988-1.786h86c1.021,0,1.879,0.77,1.988,1.786l6.285,58.357c0.243,2.255-0.487,4.516-2.002,6.203     C227.096,249.033,224.927,250,222.659,250z M138.136,185l-6.092,56.572c-0.123,1.144,0.232,2.245,1.002,3.101     c0.769,0.856,1.824,1.327,2.975,1.327h86.639c1.15,0,2.207-0.471,2.977-1.327c0.769-0.856,1.124-1.958,1.001-3.102L220.544,185     H138.136z"/>
		</g>
	</g>
	<g>
		<g>
			<path class="st1" d="M222.34,185h-86c-1.104,0-2-0.896-2-2v-10c0-9.925,8.075-18,18-18h54c9.925,0,18,8.075,18,18v10     C224.34,184.104,223.444,185,222.34,185z M138.34,181h82v-8c0-7.72-6.28-14-14-14h-54c-7.72,0-14,6.28-14,14V181z"/>
		</g>
	</g>
	<g>
		<g>
			<path class="st3" d="M124.339,155L124.339,155c3.866,0,7-3.134,7-7v-31h-14v31C117.339,151.866,120.473,155,124.339,155z"/>
		</g>
	</g>
	<g>
		<g>
			<path class="st3" d="M110.34,137L110.34,137c3.866,0,7-3.134,7-7v-13h-14v13C103.34,133.866,106.474,137,110.34,137z"/>
		</g>
	</g>
	<g>
		<g>
			<g>
				<path class="st1" d="M124.339,157c-4.963,0-9-4.038-9-9v-10.52c-1.431,0.959-3.15,1.52-4.999,1.52c-4.963,0-9-4.038-9-9v-13      c0-1.104,0.896-2,2-2s2,0.896,2,2v13c0,2.757,2.243,5,5,5c2.724,0,4.945-2.189,4.999-4.9V117c0-1.104,0.896-2,2-2s2,0.896,2,2      h0.001v13c0,0.029,0,0.058,0,0.087L119.339,148c0,2.757,2.243,5,5,5s5-2.243,5-5v-31c0-1.104,0.896-2,2-2s2,0.896,2,2v31      C133.339,152.962,129.302,157,124.339,157z"/>
			</g>
		</g>
	</g>
	<g>
		<g>
			<path class="st1" d="M71.34,192h-36c-5.514,0-10-4.486-10-10v-59c0-5.514,4.486-10,10-10h36c5.514,0,10,4.486,10,10v59     C81.34,187.514,76.854,192,71.34,192z M35.34,117c-3.309,0-6,2.691-6,6v59c0,3.309,2.691,6,6,6h36c3.309,0,6-2.691,6-6v-59     c0-3.309-2.691-6-6-6H35.34z"/>
		</g>
	</g>
	<g>
		<g>
			<g>
				<path class="st6" d="M81,27.953L81,27.953c0.32-2.104,1.245-4.089,2.788-5.68c4.067-4.194,11.189-4.135,15.906,0.15      c5.129,4.659,5.609,12.274,1.175,16.708c-1.609,1.609-3.638,2.571-5.792,2.898l0,0l-0.005,0.001c0,0,0,0,0,0l-15.069,2.41      c-0.799,0.128-1.542-0.615-1.414-1.414l2.41-15.068c0-0.001,0-0.002,0-0.003L81,27.953z"/>
			</g>
		</g>
		<g>
			<g>
				<path class="st6" d="M81,27.953L81,27.953c0.32-2.104,1.245-4.089,2.788-5.68c4.067-4.194,11.189-4.135,15.906,0.15      c5.129,4.659,5.609,12.274,1.175,16.708c-1.609,1.609-3.638,2.571-5.792,2.898l0,0l-0.005,0.001c0,0,0,0,0,0l-15.069,2.41      c-0.799,0.128-1.542-0.615-1.414-1.414l2.41-15.068c0-0.001,0-0.002,0-0.003L81,27.953z"/>
			</g>
		</g>
	</g>
	<g>
		<g>
			<g>
				<path class="st2" d="M27.52,67.584L27.52,67.584c2.276,0.633,4.51,1.89,6.412,3.748c5.015,4.899,5.946,12.443,2.059,16.848      c-4.225,4.789-12.235,4.237-17.556-1.084c-1.931-1.931-3.234-4.217-3.882-6.547l0,0l-0.002-0.006c0,0,0,0,0,0L9.895,64.226      c-0.247-0.865,0.437-1.549,1.302-1.302l16.316,4.658c0.001,0,0.002,0.001,0.003,0.001L27.52,67.584z"/>
			</g>
		</g>
		<g>
			<g>
				<path class="st1" d="M28.389,93.454c-4.089,0-8.21-1.786-11.367-4.944c-2.111-2.112-3.631-4.679-4.394-7.425l0.002,0      l-4.658-16.31c-0.318-1.114-0.041-2.248,0.742-3.031c0.784-0.783,1.917-1.06,3.032-0.744l16.315,4.658      c2.675,0.745,5.188,2.211,7.269,4.243c5.762,5.628,6.731,14.422,2.162,19.602c-2.149,2.437-5.228,3.837-8.667,3.944      C28.68,93.452,28.534,93.454,28.389,93.454z M16.493,80.057c0.584,2.068,1.744,4.012,3.356,5.625      c2.492,2.492,5.703,3.866,8.851,3.767c1.645-0.051,3.983-0.542,5.792-2.592c3.183-3.608,2.305-9.931-1.957-14.094      c-1.602-1.563-3.521-2.688-5.551-3.252V69.51l-14.699-4.196l4.19,14.68C16.481,80.015,16.487,80.036,16.493,80.057z"/>
			</g>
		</g>
	</g>
	<g>
		<g>
			<g>
				<path class="st8" d="M233.506,106.371L233.506,106.371c1.404-0.497,2.647-1.395,3.537-2.665      c2.347-3.349,1.368-8.237-2.199-10.915c-3.879-2.912-9.178-2.239-11.642,1.394c-0.894,1.319-1.288,2.84-1.229,4.364l0,0l0,0.004      c0,0,0,0,0,0l0.329,10.677c0.017,0.566,0.626,0.979,1.158,0.786l10.041-3.643c0.001,0,0.001,0,0.002-0.001L233.506,106.371z"/>
			</g>
		</g>
		<g>
			<g>
				<path class="st1" d="M223.188,112.062c-0.567,0-1.135-0.169-1.621-0.499c-0.764-0.517-1.235-1.366-1.264-2.271l-0.329-10.678      c-0.077-1.998,0.467-3.921,1.573-5.552c1.433-2.112,3.656-3.515,6.262-3.95c2.844-0.474,5.845,0.284,8.236,2.079      c4.412,3.313,5.595,9.442,2.636,13.663c-1.103,1.572-2.661,2.749-4.508,3.402c-0.006,0.002-0.012,0.004-0.018,0.006      l-10.013,3.633C223.834,112.007,223.511,112.062,223.188,112.062z M229.494,92.973c-0.345,0-0.688,0.028-1.027,0.084      c-1.515,0.253-2.797,1.052-3.609,2.25c-0.624,0.92-0.931,2.014-0.887,3.165l0.282,9.128l8.565-3.108      c0.015-0.005,0.028-0.01,0.042-0.015c1.048-0.376,1.928-1.04,2.545-1.92c1.733-2.473,0.942-6.137-1.763-8.167      C232.413,93.467,230.945,92.973,229.494,92.973z M233.506,106.371h0.01H233.506z"/>
			</g>
		</g>
	</g>
	<g>
		<g>
			<g>
				<path class="st8" d="M234.7,120.236L234.7,120.236c1.342,0.647,2.854,0.898,4.383,0.636c4.031-0.691,6.813-4.827,6.204-9.246      c-0.663-4.805-4.871-8.094-9.186-7.286c-1.566,0.293-2.924,1.085-3.965,2.2l0,0l-0.003,0.003c0,0,0,0,0,0l-7.351,7.75      c-0.39,0.411-0.255,1.134,0.258,1.376l9.656,4.566c0.001,0,0.001,0.001,0.002,0.001L234.7,120.236z"/>
			</g>
		</g>
		<g>
			<g>
				<path class="st1" d="M237.879,122.975c-1.385,0-2.761-0.316-4.048-0.938c-0.009-0.004-0.017-0.008-0.025-0.012l-0.002-0.001      l-9.619-4.548c-0.818-0.388-1.408-1.159-1.577-2.065c-0.17-0.905,0.101-1.838,0.724-2.495l7.352-7.75      c1.364-1.46,3.113-2.429,5.051-2.792c2.514-0.469,5.071,0.123,7.213,1.666c2.338,1.685,3.913,4.35,4.322,7.313      c0.754,5.466-2.767,10.621-7.848,11.491C238.908,122.931,238.393,122.975,237.879,122.975z M227.313,114.53l8.239,3.896      c0.004,0.002,0.013,0.006,0.018,0.009c1.012,0.488,2.108,0.648,3.176,0.466c2.977-0.51,5.022-3.651,4.561-7.001      c-0.26-1.885-1.243-3.566-2.697-4.614c-1.246-0.898-2.717-1.245-4.139-0.98c-1.093,0.205-2.086,0.758-2.871,1.599      c-0.014,0.014-0.026,0.028-0.04,0.042L227.313,114.53z"/>
			</g>
		</g>
	</g>
	<g>
		<g>
			<g>
				<path class="st8" d="M226.888,132.163L226.888,132.163c0.491,1.407,1.383,2.653,2.65,3.549      c3.339,2.362,8.231,1.404,10.925-2.152c2.929-3.866,2.279-9.168-1.343-11.648c-1.315-0.9-2.834-1.3-4.359-1.248l0,0l-0.004,0      c0,0,0,0,0,0l-10.678,0.282c-0.566,0.015-0.982,0.622-0.791,1.155l3.599,10.057c0,0.001,0,0.001,0.001,0.002L226.888,132.163z"/>
			</g>
		</g>
		<g>
			<g>
				<path class="st1" d="M233.686,138.997c-1.873,0-3.724-0.535-5.304-1.653c-1.557-1.101-2.721-2.651-3.369-4.486      c-0.004-0.009-0.007-0.018-0.01-0.026l-3.599-10.057c-0.305-0.854-0.176-1.817,0.345-2.577s1.371-1.228,2.275-1.252      l10.645-0.281c0.008,0,0.016,0,0.023-0.001c2.001-0.065,3.931,0.483,5.557,1.598c2.105,1.441,3.499,3.671,3.923,6.277      c0.462,2.844-0.31,5.843-2.116,8.228C239.976,137.515,236.801,138.997,233.686,138.997z M228.758,131.455      c0.007,0.017,0.013,0.033,0.019,0.049c0.369,1.06,1.032,1.95,1.916,2.575c2.466,1.746,6.134,0.97,8.175-1.726      c1.149-1.517,1.644-3.401,1.356-5.171c-0.247-1.516-1.04-2.801-2.234-3.619c-0.917-0.628-1.998-0.946-3.16-0.899l-9.131,0.241      L228.758,131.455z"/>
			</g>
		</g>
	</g>
	<g>
		<g>
			<g>
				<path class="st8" d="M214.578,133.932L214.578,133.932c-0.642,1.345-0.886,2.858-0.617,4.386      c0.708,4.028,4.857,6.792,9.273,6.163c4.802-0.684,8.073-4.907,7.246-9.218c-0.3-1.565-1.097-2.919-2.217-3.955l0,0      l-0.003-0.003c0,0,0,0,0,0l-7.782-7.317c-0.413-0.388-1.135-0.25-1.375,0.264l-4.524,9.676c0,0.001-0.001,0.001-0.001,0.002      L214.578,133.932z"/>
			</g>
		</g>
		<g>
			<g>
				<path class="st1" d="M221.992,146.57c-4.87,0-9.192-3.304-10.001-7.906c-0.331-1.882-0.064-3.808,0.771-5.57      c0.002-0.004,0.004-0.008,0.006-0.012l4.525-9.678c0.382-0.819,1.151-1.413,2.057-1.586c0.901-0.173,1.841,0.093,2.5,0.714      l7.763,7.299c0.003,0.003,0.007,0.006,0.01,0.009c1.476,1.366,2.452,3.111,2.822,5.046c0.48,2.507-0.1,5.072-1.635,7.221      c-1.674,2.345-4.332,3.932-7.293,4.353C223.005,146.534,222.495,146.569,221.992,146.57z M220.252,126.521l-3.86,8.255      c-0.002,0.005-0.006,0.013-0.009,0.018c-0.483,1.013-0.64,2.112-0.452,3.178c0.522,2.974,3.668,5.008,7.021,4.53      c1.884-0.268,3.561-1.258,4.603-2.717c0.893-1.25,1.234-2.722,0.962-4.144c-0.208-1.085-0.761-2.071-1.598-2.851      c-0.01-0.009-0.02-0.018-0.028-0.026L220.252,126.521z M214.578,133.932h0.01H214.578z M219.108,125.446      c0.001,0,0.001,0.001,0.002,0.001L219.108,125.446z M220.917,125.097l-0.001,0.002      C220.916,125.099,220.917,125.098,220.917,125.097z"/>
			</g>
		</g>
	</g>
	<g>
		<g>
			<g>
				<path class="st8" d="M203.929,124.973L203.929,124.973c-1.407,0.491-2.653,1.383-3.549,2.65      c-2.362,3.339-1.404,8.231,2.152,10.925c3.866,2.929,9.168,2.279,11.648-1.343c0.9-1.315,1.3-2.834,1.248-4.359l0,0l0-0.004      c0,0,0,0,0,0l-0.282-10.678c-0.015-0.566-0.622-0.982-1.155-0.791l-10.057,3.599c-0.001,0-0.001,0-0.002,0.001L203.929,124.973z      "/>
			</g>
		</g>
		<g>
			<g>
				<path class="st1" d="M207.916,142.388c-2.328,0-4.662-0.784-6.593-2.246c-4.397-3.332-5.554-9.466-2.576-13.674      c1.109-1.567,2.674-2.737,4.522-3.382c0.009-0.003,0.018-0.006,0.026-0.009l0.003-0.001l10.018-3.585      c0.85-0.304,1.813-0.176,2.574,0.343c0.76,0.52,1.229,1.371,1.254,2.275l0.28,10.627c0.001,0.014,0.001,0.029,0.002,0.043      c0.068,2.009-0.484,3.931-1.598,5.557c-1.441,2.105-3.671,3.499-6.278,3.922C209.01,142.345,208.463,142.388,207.916,142.388z       M213.188,123.784l-8.58,3.07c-0.005,0.001-0.015,0.005-0.02,0.007c-1.06,0.37-1.949,1.032-2.575,1.917      c-1.744,2.465-0.97,6.133,1.727,8.175c1.517,1.148,3.401,1.644,5.17,1.355c1.517-0.247,2.802-1.04,3.619-2.234      c0.629-0.917,0.939-2.01,0.899-3.16L213.188,123.784z"/>
			</g>
		</g>
	</g>
	<g>
		<g>
			<g>
				<path class="st8" d="M201.483,113.103L201.483,113.103c-1.342-0.647-2.854-0.898-4.383-0.636      c-4.031,0.691-6.813,4.827-6.204,9.246c0.663,4.805,4.871,8.094,9.186,7.286c1.566-0.293,2.924-1.085,3.965-2.2l0,0l0.003-0.003      c0,0,0,0,0,0l7.351-7.75c0.39-0.411,0.255-1.134-0.258-1.376l-9.656-4.566c-0.001,0-0.001-0.001-0.002-0.001L201.483,113.103z"/>
			</g>
		</g>
		<g>
			<g>
				<path class="st1" d="M198.763,131.123c-1.947,0-3.863-0.625-5.526-1.824c-2.338-1.684-3.913-4.35-4.321-7.313      c-0.755-5.465,2.766-10.621,7.847-11.491c1.882-0.323,3.8-0.049,5.554,0.789c0.021,0.01,0.043,0.02,0.064,0.03l9.618,4.548      c0.817,0.386,1.407,1.158,1.577,2.063c0.17,0.905-0.101,1.838-0.724,2.496l-7.321,7.718c-0.007,0.008-0.015,0.016-0.021,0.024      c-1.372,1.469-3.122,2.438-5.059,2.8C199.889,131.07,199.324,131.123,198.763,131.123z M198.299,114.365      c-0.288,0-0.575,0.024-0.861,0.073c-2.978,0.51-5.022,3.651-4.56,7.002c0.26,1.884,1.242,3.566,2.696,4.614      c1.247,0.898,2.718,1.249,4.14,0.98c1.086-0.203,2.072-0.75,2.855-1.583c0.01-0.01,0.019-0.021,0.028-0.03l6.271-6.612      l-8.211-3.883c-0.016-0.007-0.03-0.014-0.046-0.021C199.873,114.547,199.086,114.365,198.299,114.365z"/>
			</g>
		</g>
	</g>
	<g>
		<g>
			<g>
				<path class="st8" d="M209.295,101.176L209.295,101.176c-0.491-1.407-1.383-2.653-2.65-3.549      c-3.339-2.362-8.231-1.404-10.925,2.152c-2.929,3.866-2.279,9.168,1.343,11.648c1.315,0.9,2.834,1.3,4.359,1.248l0,0l0.004,0      c0,0,0,0,0,0l10.678-0.282c0.566-0.015,0.982-0.622,0.791-1.155l-3.599-10.057c0-0.001,0-0.001-0.001-0.002L209.295,101.176z"/>
			</g>
		</g>
		<g>
			<g>
				<path class="st1" d="M201.149,114.679c-1.879,0-3.679-0.551-5.215-1.603c-2.106-1.442-3.5-3.672-3.923-6.28      c-0.462-2.844,0.309-5.842,2.115-8.226c3.333-4.399,9.466-5.552,13.674-2.577c1.557,1.102,2.721,2.651,3.368,4.483      c0.004,0.01,0.008,0.019,0.011,0.029l3.599,10.057c0.306,0.851,0.178,1.813-0.343,2.574c-0.52,0.761-1.371,1.229-2.276,1.254      l-10.68,0.282C201.369,114.677,201.259,114.679,201.149,114.679z M211.013,111.911c0,0.001,0,0.001,0,0.002V111.911z       M202.478,98.328c-1.894,0-3.858,0.938-5.163,2.659c-1.148,1.516-1.643,3.4-1.354,5.169c0.246,1.517,1.04,2.802,2.234,3.62      c0.917,0.628,1.998,0.943,3.16,0.899l9.13-0.241l-3.06-8.551c-0.007-0.016-0.013-0.033-0.019-0.049      c-0.369-1.059-1.031-1.949-1.916-2.574C204.599,98.629,203.55,98.328,202.478,98.328z"/>
			</g>
		</g>
	</g>
	<g>
		<g>
			<g>
				<path class="st8" d="M221.605,99.406L221.605,99.406c0.642-1.345,0.886-2.858,0.617-4.386c-0.708-4.028-4.857-6.792-9.273-6.163      c-4.802,0.684-8.073,4.907-7.246,9.218c0.3,1.565,1.097,2.919,2.217,3.955l0,0l0.003,0.003c0,0,0,0,0,0l7.782,7.317      c0.413,0.388,1.135,0.25,1.375-0.264l4.524-9.676c0-0.001,0.001-0.001,0.001-0.002L221.605,99.406z"/>
			</g>
		</g>
		<g>
			<g>
				<path class="st1" d="M216.286,111.572c-0.723,0-1.425-0.27-1.951-0.765l-7.783-7.318c-1.466-1.357-2.441-3.102-2.813-5.038      c-0.48-2.508,0.1-5.072,1.635-7.221c1.674-2.345,4.332-3.932,7.293-4.354c5.457-0.775,10.633,2.719,11.525,7.797      c0.332,1.881,0.065,3.807-0.77,5.57c-0.004,0.008-0.008,0.017-0.012,0.025l-4.52,9.665c-0.384,0.821-1.153,1.414-2.058,1.587      C216.65,111.556,216.468,111.572,216.286,111.572z M209.264,100.549c0.01,0.009,0.02,0.018,0.028,0.026l6.64,6.244l3.854-8.244      c0.005-0.01,0.01-0.02,0.015-0.03c0.483-1.013,0.64-2.112,0.451-3.177c-0.523-2.976-3.675-5.008-7.021-4.531      c-1.884,0.268-3.561,1.259-4.603,2.717c-0.893,1.25-1.234,2.722-0.962,4.144C207.875,98.784,208.428,99.77,209.264,100.549z       M221.604,99.409h0.01H221.604z"/>
			</g>
		</g>
	</g>
	<g>
		<g>
			<g>
				<path class="st2" d="M246.077,153.269L246.077,153.269c0.211-1.64,0.006-3.423-0.676-5.155      c-1.797-4.567-6.411-7.217-10.309-5.907c-4.238,1.424-6.058,6.741-4.072,11.62c0.721,1.771,1.841,3.232,3.169,4.283l0,0      l0.003,0.003c0,0,0,0,0,0l9.26,7.439c0.491,0.395,1.118,0.139,1.194-0.486l1.429-11.791c0-0.001,0-0.001,0-0.002      L246.077,153.269z"/>
			</g>
		</g>
		<g>
			<g>
				<path class="st1" d="M243.96,167.737c-0.622,0-1.246-0.214-1.759-0.627l-9.261-7.439c-1.638-1.297-2.944-3.059-3.771-5.091      c-1.282-3.15-1.271-6.588,0.033-9.432c1.074-2.341,2.939-4.06,5.253-4.837c4.885-1.638,10.627,1.532,12.809,7.07      c0.777,1.977,1.055,4.087,0.802,6.104c-0.001,0.009-0.002,0.018-0.003,0.027l-1.43,11.793c-0.123,1.01-0.764,1.867-1.673,2.237      C244.639,167.673,244.3,167.737,243.96,167.737z M237.19,143.866c-0.495,0-0.986,0.076-1.461,0.236      c-1.609,0.541-2.461,1.774-2.892,2.713c-0.845,1.844-0.832,4.125,0.036,6.256c0.567,1.395,1.451,2.594,2.557,3.47l7.505,6.028      l1.151-9.496c0.002-0.02,0.004-0.04,0.007-0.06c0.175-1.363-0.016-2.804-0.553-4.168      C242.36,145.846,239.717,143.866,237.19,143.866z M246.077,153.273h0.01H246.077z"/>
			</g>
		</g>
	</g>
	<g>
		<g>
			<circle class="st6" cx="218.361" cy="115.854" r="9.8"/>
		</g>
	</g>
	<g>
		<g>
			<g>
				<path class="st1" d="M79.827,46.455c-0.846,0-1.676-0.341-2.294-0.959c-0.736-0.737-1.08-1.778-0.919-2.785l2.405-15.039      c0.002-0.017,0.005-0.034,0.008-0.051c0.397-2.577,1.547-4.907,3.325-6.74c4.806-4.957,13.189-4.931,18.686,0.062      c2.99,2.716,4.759,6.5,4.853,10.382c0.085,3.535-1.196,6.81-3.607,9.221c-1.849,1.849-4.219,3.042-6.856,3.454      c-0.014,0.002-0.026,0.004-0.04,0.007l-15.068,2.41C80.155,46.442,79.991,46.455,79.827,46.455z M82.976,28.263      c0,0.004-0.001,0.009-0.002,0.013L80.73,42.3l14.025-2.244c1.828-0.278,3.446-1.086,4.699-2.338      c1.629-1.63,2.495-3.866,2.437-6.297c-0.067-2.793-1.358-5.533-3.543-7.517c-3.915-3.556-9.803-3.662-13.125-0.238      c-1.202,1.24-1.979,2.826-2.246,4.587C82.977,28.257,82.977,28.26,82.976,28.263z M81,27.954h0.01H81z"/>
			</g>
		</g>
		<g>
			<g>
				<path class="st1" d="M79.827,46.455c-0.846,0-1.676-0.341-2.294-0.959c-0.736-0.737-1.08-1.778-0.919-2.785l2.405-15.039      c0.002-0.017,0.005-0.034,0.008-0.051c0.397-2.577,1.547-4.907,3.325-6.74c4.806-4.957,13.189-4.931,18.686,0.062      c2.99,2.716,4.759,6.5,4.853,10.382c0.085,3.535-1.196,6.81-3.607,9.221c-1.849,1.849-4.219,3.042-6.856,3.454      c-0.014,0.002-0.026,0.004-0.04,0.007l-15.068,2.41C80.155,46.442,79.991,46.455,79.827,46.455z M82.976,28.263      c0,0.004-0.001,0.009-0.002,0.013L80.73,42.3l14.025-2.244c1.828-0.278,3.446-1.086,4.699-2.338      c1.629-1.63,2.495-3.866,2.437-6.297c-0.067-2.793-1.358-5.533-3.543-7.517c-3.915-3.556-9.803-3.662-13.125-0.238      c-1.202,1.24-1.979,2.826-2.246,4.587C82.977,28.257,82.977,28.26,82.976,28.263z M81,27.954h0.01H81z"/>
			</g>
		</g>
	</g>
	<g>
		<g>
			<g>
				<path class="st6" d="M93.135,41.917L93.135,41.917c1.708-1.269,3.763-2.027,5.978-2.071c5.841-0.115,10.857,4.94,11.191,11.304      c0.362,6.919-4.658,12.666-10.928,12.693c-2.276,0.01-4.394-0.735-6.154-2.02v0l-0.004-0.003c0,0,0,0,0,0l-12.399-8.897      c-0.658-0.472-0.662-1.522-0.009-2l12.32-9.004c0.001-0.001,0.002-0.001,0.002-0.002L93.135,41.917z"/>
			</g>
		</g>
		<g>
			<g>
				<path class="st6" d="M93.135,41.917L93.135,41.917c1.708-1.269,3.763-2.027,5.978-2.071c5.841-0.115,10.857,4.94,11.191,11.304      c0.362,6.919-4.658,12.666-10.928,12.693c-2.276,0.01-4.394-0.735-6.154-2.02v0l-0.004-0.003c0,0,0,0,0,0l-12.399-8.897      c-0.658-0.472-0.662-1.522-0.009-2l12.32-9.004c0.001-0.001,0.002-0.001,0.002-0.002L93.135,41.917z"/>
			</g>
		</g>
	</g>
	<g>
		<g>
			<g>
				<path class="st1" d="M99.332,65.844c-2.601,0-5.107-0.822-7.257-2.38c-0.008-0.006-0.017-0.012-0.024-0.018l-12.398-8.897      c-0.828-0.594-1.325-1.572-1.33-2.614c-0.004-1.042,0.484-2.023,1.307-2.625l12.32-9.004c0.006-0.005,0.013-0.009,0.02-0.014      c2.097-1.55,4.553-2.396,7.104-2.446c6.935-0.13,12.84,5.785,13.228,13.2c0.212,4.034-1.197,7.967-3.863,10.789      c-2.429,2.57-5.644,3.994-9.053,4.009C99.367,65.844,99.35,65.844,99.332,65.844z M94.355,60.177      c0.016,0.011,0.03,0.021,0.045,0.032c1.478,1.077,3.19,1.656,4.967,1.635c2.305-0.01,4.493-0.989,6.163-2.756      c1.919-2.031,2.931-4.886,2.776-7.833c-0.273-5.225-4.294-9.411-8.998-9.411c-0.052,0-0.104,0-0.156,0.001      c-1.726,0.034-3.395,0.614-4.824,1.677l0,0c-0.018,0.013-0.036,0.026-0.054,0.039l-11.432,8.354L94.355,60.177z M93.132,41.919      h0.01H93.132z"/>
			</g>
		</g>
		<g>
			<g>
				<path class="st1" d="M99.332,65.844c-2.601,0-5.107-0.822-7.257-2.38c-0.008-0.006-0.017-0.012-0.024-0.018l-12.398-8.897      c-0.828-0.594-1.325-1.572-1.33-2.614c-0.004-1.042,0.484-2.023,1.307-2.625l12.32-9.004c0.006-0.005,0.013-0.009,0.02-0.014      c2.097-1.55,4.553-2.396,7.104-2.446c6.935-0.13,12.84,5.785,13.228,13.2c0.212,4.034-1.197,7.967-3.863,10.789      c-2.429,2.57-5.644,3.994-9.053,4.009C99.367,65.844,99.35,65.844,99.332,65.844z M94.355,60.177      c0.016,0.011,0.03,0.021,0.045,0.032c1.478,1.077,3.19,1.656,4.967,1.635c2.305-0.01,4.493-0.989,6.163-2.756      c1.919-2.031,2.931-4.886,2.776-7.833c-0.273-5.225-4.294-9.411-8.998-9.411c-0.052,0-0.104,0-0.156,0.001      c-1.726,0.034-3.395,0.614-4.824,1.677l0,0c-0.018,0.013-0.036,0.026-0.054,0.039l-11.432,8.354L94.355,60.177z M93.132,41.919      h0.01H93.132z"/>
			</g>
		</g>
	</g>
	<g>
		<g>
			<g>
				<path class="st6" d="M93.807,60.283L93.807,60.283c2.106,0.311,4.094,1.227,5.692,2.763c4.212,4.049,4.184,11.171-0.08,15.907      c-4.636,5.149-12.25,5.663-16.703,1.248c-1.616-1.602-2.587-3.627-2.923-5.78l0,0l-0.001-0.005c0,0,0,0,0,0l-2.476-15.058      c-0.131-0.799,0.608-1.544,1.408-1.42l15.078,2.345c0.001,0,0.002,0,0.003,0L93.807,60.283z"/>
			</g>
		</g>
		<g>
			<g>
				<path class="st6" d="M93.807,60.283L93.807,60.283c2.106,0.311,4.094,1.227,5.692,2.763c4.212,4.049,4.184,11.171-0.08,15.907      c-4.636,5.149-12.25,5.663-16.703,1.248c-1.616-1.602-2.587-3.627-2.923-5.78l0,0l-0.001-0.005c0,0,0,0,0,0l-2.476-15.058      c-0.131-0.799,0.608-1.544,1.408-1.42l15.078,2.345c0.001,0,0.002,0,0.003,0L93.807,60.283z"/>
			</g>
		</g>
	</g>
	<g>
		<g>
			<g>
				<path class="st1" d="M90.155,85.193c-3.387,0-6.516-1.261-8.848-3.573c-1.868-1.852-3.076-4.234-3.491-6.891l-2.476-15.047      c-0.165-1.007,0.175-2.049,0.908-2.789c0.733-0.739,1.765-1.087,2.78-0.933l15.079,2.345c2.588,0.383,4.931,1.524,6.776,3.298      c4.979,4.787,4.988,13.169,0.021,18.687c-2.704,3.002-6.48,4.787-10.362,4.897C90.414,85.191,90.284,85.193,90.155,85.193z       M79.459,60.076l2.306,14.015c0.286,1.828,1.101,3.442,2.359,4.689c1.636,1.623,3.863,2.475,6.307,2.41      c2.793-0.079,5.527-1.382,7.502-3.576c3.539-3.931,3.62-9.82,0.181-13.126c-1.245-1.196-2.835-1.966-4.599-2.226      c-0.012-0.002-0.024-0.004-0.037-0.006l-0.003,0L79.459,60.076z"/>
			</g>
		</g>
		<g>
			<g>
				<path class="st1" d="M90.155,85.193c-3.387,0-6.516-1.261-8.848-3.573c-1.868-1.852-3.076-4.234-3.491-6.891l-2.476-15.047      c-0.165-1.007,0.175-2.049,0.908-2.789c0.733-0.739,1.765-1.087,2.78-0.933l15.079,2.345c2.588,0.383,4.931,1.524,6.776,3.298      c4.979,4.787,4.988,13.169,0.021,18.687c-2.704,3.002-6.48,4.787-10.362,4.897C90.414,85.191,90.284,85.193,90.155,85.193z       M79.459,60.076l2.306,14.015c0.286,1.828,1.101,3.442,2.359,4.689c1.636,1.623,3.863,2.475,6.307,2.41      c2.793-0.079,5.527-1.382,7.502-3.576c3.539-3.931,3.62-9.82,0.181-13.126c-1.245-1.196-2.835-1.966-4.599-2.226      c-0.012-0.002-0.024-0.004-0.037-0.006l-0.003,0L79.459,60.076z"/>
			</g>
		</g>
	</g>
	<g>
		<g>
			<g>
				<path class="st6" d="M81.396,72.355L81.396,72.355c1.269,1.708,2.027,3.763,2.071,5.978c0.115,5.841-4.94,10.857-11.304,11.191      c-6.919,0.362-12.666-4.658-12.693-10.928c-0.01-2.276,0.735-4.394,2.02-6.154h0l0.003-0.004c0,0,0,0,0,0l8.897-12.399      c0.472-0.658,1.522-0.662,2-0.009l9.004,12.32c0.001,0.001,0.001,0.002,0.002,0.002L81.396,72.355z"/>
			</g>
		</g>
		<g>
			<g>
				<path class="st6" d="M81.396,72.355L81.396,72.355c1.269,1.708,2.027,3.763,2.071,5.978c0.115,5.841-4.94,10.857-11.304,11.191      c-6.919,0.362-12.666-4.658-12.693-10.928c-0.01-2.276,0.735-4.394,2.02-6.154h0l0.003-0.004c0,0,0,0,0,0l8.897-12.399      c0.472-0.658,1.522-0.662,2-0.009l9.004,12.32c0.001,0.001,0.001,0.002,0.002,0.002L81.396,72.355z"/>
			</g>
		</g>
	</g>
	<g>
		<g>
			<g>
				<path class="st1" d="M71.473,91.542c-3.752,0-7.356-1.393-9.993-3.884c-2.571-2.429-3.995-5.644-4.01-9.054      c-0.012-2.632,0.82-5.17,2.403-7.341l8.891-12.391c0.595-0.828,1.571-1.325,2.614-1.33c1.019,0.018,2.023,0.484,2.625,1.307      l9.004,12.32c1.56,2.101,2.41,4.564,2.461,7.125c0.136,6.906-5.785,12.839-13.2,13.227      C72.002,91.535,71.737,91.542,71.473,91.542z M63.137,73.576c-0.011,0.015-0.021,0.03-0.031,0.045      c-1.078,1.477-1.644,3.194-1.636,4.966c0.01,2.305,0.989,4.494,2.757,6.164c2.03,1.92,4.888,2.93,7.832,2.776      c5.282-0.276,9.504-4.383,9.409-9.154c-0.034-1.726-0.613-3.395-1.677-4.825l0,0c-0.004-0.006-0.009-0.012-0.013-0.018      l-8.381-11.467L63.137,73.576z"/>
			</g>
		</g>
		<g>
			<g>
				<path class="st1" d="M71.473,91.542c-3.752,0-7.356-1.393-9.993-3.884c-2.571-2.429-3.995-5.644-4.01-9.054      c-0.012-2.632,0.82-5.17,2.403-7.341l8.891-12.391c0.595-0.828,1.571-1.325,2.614-1.33c1.019,0.018,2.023,0.484,2.625,1.307      l9.004,12.32c1.56,2.101,2.41,4.564,2.461,7.125c0.136,6.906-5.785,12.839-13.2,13.227      C72.002,91.535,71.737,91.542,71.473,91.542z M63.137,73.576c-0.011,0.015-0.021,0.03-0.031,0.045      c-1.078,1.477-1.644,3.194-1.636,4.966c0.01,2.305,0.989,4.494,2.757,6.164c2.03,1.92,4.888,2.93,7.832,2.776      c5.282-0.276,9.504-4.383,9.409-9.154c-0.034-1.726-0.613-3.395-1.677-4.825l0,0c-0.004-0.006-0.009-0.012-0.013-0.018      l-8.381-11.467L63.137,73.576z"/>
			</g>
		</g>
	</g>
	<g>
		<g>
			<g>
				<path class="st6" d="M61.622,74.408L61.622,74.408c-0.32,2.104-1.245,4.089-2.788,5.68c-4.067,4.194-11.189,4.135-15.906-0.15      c-5.129-4.659-5.609-12.274-1.175-16.708c1.609-1.609,3.638-2.571,5.792-2.898l0,0l0.005-0.001c0,0,0,0,0,0l15.069-2.41      c0.799-0.128,1.542,0.615,1.414,1.414l-2.41,15.068c0,0.001,0,0.002,0,0.003L61.622,74.408z"/>
			</g>
		</g>
		<g>
			<g>
				<path class="st6" d="M61.622,74.408L61.622,74.408c-0.32,2.104-1.245,4.089-2.788,5.68c-4.067,4.194-11.189,4.135-15.906-0.15      c-5.129-4.659-5.609-12.274-1.175-16.708c1.609-1.609,3.638-2.571,5.792-2.898l0,0l0.005-0.001c0,0,0,0,0,0l15.069-2.41      c0.799-0.128,1.542,0.615,1.414,1.414l-2.41,15.068c0,0.001,0,0.002,0,0.003L61.622,74.408z"/>
			</g>
		</g>
	</g>
	<g>
		<g>
			<g>
				<path class="st1" d="M51.23,85.18c-3.398,0-6.887-1.255-9.647-3.762c-2.99-2.717-4.759-6.501-4.852-10.383      c-0.085-3.535,1.196-6.81,3.607-9.22c1.849-1.849,4.219-3.042,6.855-3.454c0.014-0.002,0.026-0.004,0.04-0.007l15.069-2.41      c1.005-0.158,2.047,0.183,2.784,0.92s1.081,1.778,0.92,2.785l-2.409,15.062c-0.395,2.589-1.546,4.929-3.329,6.768      C57.877,83.948,54.598,85.18,51.23,85.18z M61.892,60.062l-14.025,2.244c-1.828,0.278-3.446,1.085-4.699,2.338      c-1.63,1.629-2.495,3.866-2.437,6.296c0.066,2.793,1.357,5.534,3.542,7.518c3.914,3.556,9.803,3.664,13.126,0.238      c1.201-1.239,1.979-2.826,2.246-4.588c0.001-0.007,0.003-0.014,0.004-0.021L61.892,60.062z M61.622,74.408h0.01H61.622z"/>
			</g>
		</g>
		<g>
			<g>
				<path class="st1" d="M51.23,85.18c-3.398,0-6.887-1.255-9.647-3.762c-2.99-2.717-4.759-6.501-4.852-10.383      c-0.085-3.535,1.196-6.81,3.607-9.22c1.849-1.849,4.219-3.042,6.855-3.454c0.014-0.002,0.026-0.004,0.04-0.007l15.069-2.41      c1.005-0.158,2.047,0.183,2.784,0.92s1.081,1.778,0.92,2.785l-2.409,15.062c-0.395,2.589-1.546,4.929-3.329,6.768      C57.877,83.948,54.598,85.18,51.23,85.18z M61.892,60.062l-14.025,2.244c-1.828,0.278-3.446,1.085-4.699,2.338      c-1.63,1.629-2.495,3.866-2.437,6.296c0.066,2.793,1.357,5.534,3.542,7.518c3.914,3.556,9.803,3.664,13.126,0.238      c1.201-1.239,1.979-2.826,2.246-4.588c0.001-0.007,0.003-0.014,0.004-0.021L61.892,60.062z M61.622,74.408h0.01H61.622z"/>
			</g>
		</g>
	</g>
	<g>
		<g>
			<g>
				<path class="st6" d="M48.487,62.444L48.487,62.444c-1.708,1.269-3.763,2.027-5.978,2.071      c-5.841,0.115-10.857-4.94-11.191-11.304c-0.362-6.919,4.658-12.666,10.928-12.693c2.276-0.01,4.394,0.735,6.154,2.02l0,0      l0.004,0.003c0,0,0,0,0,0l12.399,8.897c0.658,0.472,0.662,1.522,0.009,2l-12.32,9.004c-0.001,0.001-0.002,0.001-0.002,0.002      L48.487,62.444z"/>
			</g>
		</g>
		<g>
			<g>
				<path class="st6" d="M48.487,62.444L48.487,62.444c-1.708,1.269-3.763,2.027-5.978,2.071      c-5.841,0.115-10.857-4.94-11.191-11.304c-0.362-6.919,4.658-12.666,10.928-12.693c2.276-0.01,4.394,0.735,6.154,2.02l0,0      l0.004,0.003c0,0,0,0,0,0l12.399,8.897c0.658,0.472,0.662,1.522,0.009,2l-12.32,9.004c-0.001,0.001-0.002,0.001-0.002,0.002      L48.487,62.444z"/>
			</g>
		</g>
	</g>
	<g>
		<g>
			<g>
				<path class="st1" d="M42.314,66.518c-6.805,0-12.609-5.871-12.993-13.202c-0.212-4.034,1.197-7.967,3.863-10.789      c2.429-2.57,5.644-3.994,9.053-4.009c2.652-0.022,5.17,0.82,7.342,2.404l12.391,8.891c0.828,0.594,1.325,1.572,1.33,2.614      c0.004,1.042-0.484,2.023-1.307,2.625l-12.3,8.988c-0.005,0.003-0.009,0.007-0.014,0.01c-2.104,1.562-4.569,2.415-7.131,2.465      C42.471,66.517,42.393,66.518,42.314,66.518z M42.29,42.518c-0.012,0-0.023,0-0.035,0c-2.305,0.01-4.493,0.989-6.163,2.756      c-1.919,2.031-2.931,4.886-2.776,7.833c0.276,5.283,4.396,9.513,9.154,9.41c1.718-0.034,3.379-0.609,4.807-1.664      c0.006-0.004,0.011-0.008,0.016-0.012c0.007-0.005,0.014-0.01,0.021-0.015l11.466-8.38l-11.512-8.261      c-0.016-0.01-0.03-0.021-0.045-0.032C45.754,43.083,44.05,42.518,42.29,42.518z M48.487,62.444h0.01H48.487z"/>
			</g>
		</g>
		<g>
			<g>
				<path class="st1" d="M42.314,66.518c-6.805,0-12.609-5.871-12.993-13.202c-0.212-4.034,1.197-7.967,3.863-10.789      c2.429-2.57,5.644-3.994,9.053-4.009c2.652-0.022,5.17,0.82,7.342,2.404l12.391,8.891c0.828,0.594,1.325,1.572,1.33,2.614      c0.004,1.042-0.484,2.023-1.307,2.625l-12.3,8.988c-0.005,0.003-0.009,0.007-0.014,0.01c-2.104,1.562-4.569,2.415-7.131,2.465      C42.471,66.517,42.393,66.518,42.314,66.518z M42.29,42.518c-0.012,0-0.023,0-0.035,0c-2.305,0.01-4.493,0.989-6.163,2.756      c-1.919,2.031-2.931,4.886-2.776,7.833c0.276,5.283,4.396,9.513,9.154,9.41c1.718-0.034,3.379-0.609,4.807-1.664      c0.006-0.004,0.011-0.008,0.016-0.012c0.007-0.005,0.014-0.01,0.021-0.015l11.466-8.38l-11.512-8.261      c-0.016-0.01-0.03-0.021-0.045-0.032C45.754,43.083,44.05,42.518,42.29,42.518z M48.487,62.444h0.01H48.487z"/>
			</g>
		</g>
	</g>
	<g>
		<g>
			<g>
				<path class="st6" d="M48.815,43.079L48.815,43.079c-2.106-0.311-4.094-1.227-5.692-2.763c-4.212-4.049-4.184-11.171,0.08-15.907      c4.636-5.149,12.25-5.663,16.703-1.248c1.616,1.602,2.587,3.627,2.923,5.78l0,0l0.001,0.005c0,0,0,0,0,0l2.476,15.058      c0.131,0.799-0.608,1.544-1.408,1.42L48.821,43.08c-0.001,0-0.002,0-0.003,0L48.815,43.079z"/>
			</g>
		</g>
		<g>
			<g>
				<path class="st6" d="M48.815,43.079L48.815,43.079c-2.106-0.311-4.094-1.227-5.692-2.763c-4.212-4.049-4.184-11.171,0.08-15.907      c4.636-5.149,12.25-5.663,16.703-1.248c1.616,1.602,2.587,3.627,2.923,5.78l0,0l0.001,0.005c0,0,0,0,0,0l2.476,15.058      c0.131,0.799-0.608,1.544-1.408,1.42L48.821,43.08c-0.001,0-0.002,0-0.003,0L48.815,43.079z"/>
			</g>
		</g>
	</g>
	<g>
		<g>
			<g>
				<path class="st1" d="M64.07,47.438c-0.159,0-0.318-0.012-0.478-0.037l-15.07-2.344c-2.591-0.382-4.938-1.523-6.785-3.299      c-4.979-4.787-4.988-13.169-0.021-18.687c2.703-3.002,6.48-4.787,10.361-4.897c3.542-0.09,6.815,1.167,9.236,3.567      c1.869,1.853,3.076,4.236,3.491,6.891L67.28,43.68c0.166,1.004-0.173,2.047-0.906,2.788      C65.756,47.091,64.92,47.438,64.07,47.438z M49.106,41.101l14.056,2.185l-2.305-14.015c-0.286-1.827-1.101-3.441-2.359-4.689      c-1.636-1.623-3.861-2.469-6.307-2.409c-2.793,0.079-5.527,1.382-7.502,3.575c-3.539,3.931-3.62,9.82-0.181,13.126      C45.754,40.07,47.343,40.84,49.106,41.101L49.106,41.101z"/>
			</g>
		</g>
		<g>
			<g>
				<path class="st1" d="M64.07,47.438c-0.159,0-0.318-0.012-0.478-0.037l-15.07-2.344c-2.591-0.382-4.938-1.523-6.785-3.299      c-4.979-4.787-4.988-13.169-0.021-18.687c2.703-3.002,6.48-4.787,10.361-4.897c3.542-0.09,6.815,1.167,9.236,3.567      c1.869,1.853,3.076,4.236,3.491,6.891L67.28,43.68c0.166,1.004-0.173,2.047-0.906,2.788      C65.756,47.091,64.92,47.438,64.07,47.438z M49.106,41.101l14.056,2.185l-2.305-14.015c-0.286-1.827-1.101-3.441-2.359-4.689      c-1.636-1.623-3.861-2.469-6.307-2.409c-2.793,0.079-5.527,1.382-7.502,3.575c-3.539,3.931-3.62,9.82-0.181,13.126      C45.754,40.07,47.343,40.84,49.106,41.101L49.106,41.101z"/>
			</g>
		</g>
	</g>
	<g>
		<g>
			<g>
				<path class="st6" d="M61.346,27.644L61.346,27.644c-1.262-1.714-2.011-3.771-2.045-5.987      c-0.09-5.842,4.988-10.836,11.353-11.141C77.574,10.183,83.3,15.228,83.3,21.499c0,2.276-0.755,4.391-2.046,6.145h0      l-0.003,0.004c0,0,0,0,0,0l-8.951,12.36c-0.475,0.655-1.525,0.655-2,0L61.35,27.65c-0.001-0.001-0.001-0.002-0.002-0.002      L61.346,27.644z"/>
			</g>
		</g>
		<g>
			<g>
				<path class="st6" d="M61.346,27.644L61.346,27.644c-1.262-1.714-2.011-3.771-2.045-5.987      c-0.09-5.842,4.988-10.836,11.353-11.141C77.574,10.183,83.3,15.228,83.3,21.499c0,2.276-0.755,4.391-2.046,6.145h0      l-0.003,0.004c0,0,0,0,0,0l-8.951,12.36c-0.475,0.655-1.525,0.655-2,0L61.35,27.65c-0.001-0.001-0.001-0.002-0.002-0.002      L61.346,27.644z"/>
			</g>
		</g>
	</g>
	<g>
		<g>
			<g>
				<path class="st1" d="M71.3,42.5c-0.001,0-0.001,0-0.002,0c-1.042,0-2.021-0.494-2.618-1.319l-8.927-12.326      c-0.015-0.02-0.028-0.039-0.043-0.059c-1.537-2.102-2.369-4.559-2.409-7.108c-0.106-6.906,5.841-12.813,13.258-13.169      c4.04-0.191,7.961,1.231,10.771,3.91c2.56,2.44,3.97,5.661,3.97,9.071c0,2.631-0.843,5.167-2.437,7.331L73.92,41.181      C73.32,42.008,72.341,42.5,71.3,42.5z M62.97,26.477l8.33,11.503l8.31-11.475c0.011-0.016,0.022-0.031,0.033-0.046      c1.084-1.472,1.657-3.187,1.657-4.959c0-2.305-0.97-4.498-2.729-6.175c-2.021-1.927-4.864-2.942-7.82-2.811      c-5.284,0.254-9.522,4.342-9.449,9.113c0.026,1.726,0.599,3.397,1.655,4.833C62.961,26.464,62.965,26.47,62.97,26.477      L62.97,26.477z"/>
			</g>
		</g>
		<g>
			<g>
				<path class="st1" d="M71.3,42.5c-0.001,0-0.001,0-0.002,0c-1.042,0-2.021-0.494-2.618-1.319l-8.927-12.326      c-0.015-0.02-0.028-0.039-0.043-0.059c-1.537-2.102-2.369-4.559-2.409-7.108c-0.106-6.906,5.841-12.813,13.258-13.169      c4.04-0.191,7.961,1.231,10.771,3.91c2.56,2.44,3.97,5.661,3.97,9.071c0,2.631-0.843,5.167-2.437,7.331L73.92,41.181      C73.32,42.008,72.341,42.5,71.3,42.5z M62.97,26.477l8.33,11.503l8.31-11.475c0.011-0.016,0.022-0.031,0.033-0.046      c1.084-1.472,1.657-3.187,1.657-4.959c0-2.305-0.97-4.498-2.729-6.175c-2.021-1.927-4.864-2.942-7.82-2.811      c-5.284,0.254-9.522,4.342-9.449,9.113c0.026,1.726,0.599,3.397,1.655,4.833C62.961,26.464,62.965,26.47,62.97,26.477      L62.97,26.477z"/>
			</g>
		</g>
	</g>
	<g>
		<g>
			<circle class="st8" cx="71.039" cy="50" r="14"/>
		</g>
	</g>
</g>
</svg>
