<?xml version="1.0"?>
<svg xmlns="http://www.w3.org/2000/svg" viewBox="0 0 512 512" width="512" height="512"><g id="Out_line" data-name="Out line"><path d="M428.12988,234.82007l59.73-114.03a38.3754,38.3754,0,0,0-67.98974-35.61011l-59.73,114.03a38.13975,38.13975,0,0,0-.17017,35.24L341.47,269.78l-25.88989-12.94019a8.01429,8.01429,0,0,0-10.53,3.19019l-49.14014,85.99a88.04252,88.04252,0,0,0-11.55981,42.5A48.02781,48.02781,0,0,0,224,384c-.34009,0-.66992.02-1.01.03A32.05583,32.05583,0,0,0,192,360V296h8a88.104,88.104,0,0,0,88-88V176a24.03189,24.03189,0,0,0-24-24H202a89.55357,89.55357,0,0,0-72.27,36.37988A89.58933,89.58933,0,0,0,102,184H40a24.03189,24.03189,0,0,0-24,24v32a88.104,88.104,0,0,0,88,88h40v33.01a32.05345,32.05345,0,0,0-14.62988,8.38989A32.0056,32.0056,0,0,0,88.73,393.22,31.98307,31.98307,0,0,0,49.01,416H32v16H56a7.9979,7.9979,0,0,0,8-8,16,16,0,0,1,32,0h16a31.85119,31.85119,0,0,0-7.65991-20.74A15.98063,15.98063,0,0,1,120,384c.34009,0,.66992.03,1,.05A16.04011,16.04011,0,0,1,136,400h16a31.91357,31.91357,0,0,0-8.3999-21.59009,15.91573,15.91573,0,0,1,18.7998,1.44019A31.90624,31.90624,0,0,0,160,392h16a15.99314,15.99314,0,0,1,31.2-4.96A48.07784,48.07784,0,0,0,176,432h16a31.99125,31.99125,0,0,1,56.83008-20.16992A32.0284,32.0284,0,0,0,232,440h16a16,16,0,0,1,32,0h16a31.814,31.814,0,0,0-2.93994-13.37012,24.00674,24.00674,0,0,1,21.86987.01026A31.91291,31.91291,0,0,0,312,440h16a16,16,0,0,1,32,0h16a31.90624,31.90624,0,0,0-2.3999-12.1499A15.99221,15.99221,0,0,1,400,440a7.9979,7.9979,0,0,0,8,8h64V432H414.99a31.99185,31.99185,0,0,0-45.31006-20.60986,88.39422,88.39422,0,0,0,5.25-9.61011L415.25,315.37988a8.01246,8.01246,0,0,0-3.66992-10.54L381.43994,289.77l18.26-34.86011A38.4463,38.4463,0,0,0,428.12988,234.82007ZM176,364.31006a32.13406,32.13406,0,0,0-3.98,2.72A32.02613,32.02613,0,0,0,160,361.02V320a7.9979,7.9979,0,0,0-8-8H136a72.08281,72.08281,0,0,1-72-72v-8H48v8a87.86236,87.86236,0,0,0,32.08008,67.8999A72.11045,72.11045,0,0,1,32,240V208a8.01058,8.01058,0,0,1,8-8h62a74.08855,74.08855,0,0,1,74,74ZM144.91992,194.90991A73.6318,73.6318,0,0,1,202,168h62a8.01058,8.01058,0,0,1,8,8v32a72.1027,72.1027,0,0,1-48.12012,67.90991A88.20533,88.20533,0,0,0,256,208v-8H240v8a72.25766,72.25766,0,0,1-48,67.8999V274A90.07836,90.07836,0,0,0,144.91992,194.90991Zm252.54,120.76-37.03,79.3501a71.92141,71.92141,0,0,1-8.57983,13.96A31.90653,31.90653,0,0,0,325.24,414.1001,39.84963,39.84963,0,0,0,304,408c-.35986,0-.72.02-1.08008.03L327.02,363.83008l-14.04-7.66016-31.22,57.23A31.8198,31.8198,0,0,0,265.6001,408.04a47.96151,47.96151,0,0,0-4.22022-6.16992A71.94968,71.94968,0,0,1,269.81006,353.96L315.18994,274.54,334.04,283.96,318.90991,312.8501A22.34234,22.34234,0,1,0,358.49,333.58984L374.01,303.95Zm-53.13989,10.49a6.37553,6.37553,0,0,1-5.65015,3.41016,6.2392,6.2392,0,0,1-3.49-1.07007,6.31165,6.31165,0,0,1-2.09985-8.22l38.02-72.6001A38.06759,38.06759,0,0,0,379.02,252.28a35.58527,35.58527,0,0,0,3.33984,1.25Zm41-88.57983a22.38374,22.38374,0,0,1-11-30.9502l59.73-114.02978a22.47931,22.47931,0,0,1,28.62988-10.18018,22.38374,22.38374,0,0,1,11,30.9502L413.95,227.3999A22.47931,22.47931,0,0,1,385.32007,237.58008Z"/></g></svg>
