<?xml version="1.0"?>
<svg xmlns="http://www.w3.org/2000/svg" width="512" height="512" viewBox="0 0 512 512"><g><path d="M472,104H456V88a8,8,0,0,0-8-8H432V64a8,8,0,0,0-8-8H40a8,8,0,0,0-8,8V80H16a8,8,0,0,0-8,8v48a8,8,0,0,0,8,8H32v16a8,8,0,0,0,8,8H56v56a24.006,24.006,0,0,0,32,22.63V272a24,24,0,0,0,48,0V206.63A24.006,24.006,0,0,0,168,184V168H424a8,8,0,0,0,8-8V144h16a8,8,0,0,0,8-8V120h16a16.021,16.021,0,0,1,16,16v64a16.021,16.021,0,0,1-16,16H256a8,8,0,0,0-8,8v32h-8a8,8,0,0,0-8,8v16a8,8,0,0,0-8,8V480a24.032,24.032,0,0,0,24,24h16a24.032,24.032,0,0,0,24-24V288a8,8,0,0,0-8-8V264a8,8,0,0,0-8-8h-8V232H472a32.036,32.036,0,0,0,32-32V136A32.036,32.036,0,0,0,472,104ZM32,128H24V96h8Zm384,24H160a8,8,0,0,0-8,8v24a8,8,0,0,1-16,0,8,8,0,0,0-16,0v88a8,8,0,0,1-16,0V224a8,8,0,0,0-16,0,8,8,0,0,1-16,0V160a8,8,0,0,0-8-8H48V72H416Zm24-24h-8V96h8ZM248,272h16v8H248Zm24,24V480a8.011,8.011,0,0,1-8,8H248a8.011,8.011,0,0,1-8-8V296Z"/><path d="M96,152a8,8,0,0,0-8,8v40a8,8,0,0,0,16,0V160A8,8,0,0,0,96,152Z"/><path d="M128,144a8,8,0,0,0-8,8v8a8,8,0,0,0,16,0v-8A8,8,0,0,0,128,144Z"/></g></svg>
