<svg id="Capa_1" enable-background="new 0 0 512 512" height="512" viewBox="0 0 512 512" width="512" xmlns="http://www.w3.org/2000/svg"><g><g><g><path d="m313.594 44.346v46.262.003 3.18c0 11.849 9.588 21.455 21.415 21.455s21.415-9.606 21.415-21.455v35.201c0 11.849 9.588 21.455 21.415 21.455s21.415-9.606 21.415-21.455v-84.646z" fill="#a4fcc4"/></g><path d="m94.193 43.152v102.864c0 11.849 9.588 21.455 21.415 21.455s21.415-9.606 21.415-21.455v-19.405c.01-11.841 9.594-21.437 21.415-21.437s21.405 9.596 21.415 21.437v3.18c0 11.849 9.588 21.455 21.415 21.455s21.415-9.606 21.415-21.455v13.837c0 11.849 9.588 21.455 21.415 21.455s21.415-9.606 21.415-21.455v-100.476z" fill="#a4fcc4"/></g><g><path d="m502 121.209h-40.657v-60.714c0-15.077-12.266-27.342-27.343-27.342h-377.299c-15.077 0-27.343 12.266-27.343 27.342v60.715h-19.358c-5.523 0-10 4.477-10 10s4.477 10 10 10h19.358v60.715c0 15.077 12.266 27.343 27.343 27.343h377.299c15.077 0 27.343-12.266 27.343-27.343v-60.715h30.657v75.312c0 20.154-16.175 36.55-36.057 36.55h-183.914c-17.289 0-31.354 14.095-31.354 31.419v23.482h-19.157c-5.523 0-10 4.477-10 10v121.629c0 21.64 17.566 39.246 39.157 39.246s39.157-17.606 39.157-39.246v-121.63c0-5.523-4.477-10-10-10h-19.157v-23.482c0-6.297 5.093-11.419 11.354-11.419h183.914c30.91 0 56.057-25.368 56.057-56.55v-85.312c0-5.522-4.477-10-10-10zm-60.657 80.715c0 4.049-3.294 7.343-7.343 7.343h-377.299c-4.049 0-7.343-3.294-7.343-7.343v-141.429c0-4.048 3.294-7.342 7.343-7.342h377.299c4.049 0 7.343 3.294 7.343 7.342zm-171.51 237.678c0 10.612-8.594 19.246-19.157 19.246s-19.157-8.634-19.157-19.246v-111.63h38.314z" fill="#020288"/></g></g></svg>